<svg xmlns="http://www.w3.org/2000/svg" xml:space="preserve" viewBox="0 0 228 228" width="16" height="16"><path d="M256 234.671h42.667v64H256zM508.958 245.026l-6.208-10.347h-76.075v64h85.333v-42.667c.001-3.882-1.066-7.658-3.05-10.986z"/><path d="M384 320.004V213.338c0-11.776 9.557-21.333 21.333-21.333h71.808l-25.963-43.285c0-.021-.021-.021-.021-.043-7.68-12.736-21.696-20.672-36.565-20.672h-85.76l21.333-21.333H448a21.367 21.367 0 0 0 19.712-13.163 21.33 21.33 0 0 0-4.629-23.253l-64-64A21.275 21.275 0 0 0 384 .005H64c-23.531 0-42.667 19.136-42.667 42.667v21.333c0 23.531 19.136 42.667 42.667 42.667h55.168l21.333 21.333H42.667C19.136 128.004 0 147.14 0 170.671v234.667c0 23.531 19.136 42.667 42.667 42.667 0 35.285 28.715 64 64 64s64-28.715 64-64h170.667c0 35.285 28.715 64 64 64s64-28.715 64-64c23.531 0 42.667-19.136 42.667-42.667v-64H405.333c-11.776 0-21.333-9.558-21.333-21.334zm-320-256V42.671h311.168l21.333 21.333H64zm42.667 405.334c-11.755 0-21.333-9.579-21.333-21.333 0-4.715 1.835-8.853 4.437-12.373 8.171-10.88 25.621-10.88 33.792 0 2.603 3.52 4.437 7.659 4.437 12.373 0 11.754-9.579 21.333-21.333 21.333zM192 320.004c0 11.776-9.557 21.333-21.333 21.333H85.333C73.557 341.338 64 331.78 64 320.004V213.338c0-11.776 9.557-21.333 21.333-21.333h85.333c11.776 0 21.333 9.557 21.333 21.333v106.666zm-12.501-213.333h110.336l-21.333 21.333h-67.669l-21.334-21.333zm161.834 213.333c0 11.776-9.557 21.333-21.333 21.333h-85.333c-11.776 0-21.333-9.557-21.333-21.333V213.338c0-11.776 9.557-21.333 21.333-21.333H320c11.776 0 21.333 9.557 21.333 21.333v106.666zm80.896 115.627c2.603 3.52 4.437 7.659 4.437 12.373 0 11.755-9.579 21.333-21.333 21.333-11.755 0-21.333-9.579-21.333-21.333 0-4.715 1.835-8.853 4.437-12.373 8.171-10.88 25.622-10.88 33.792 0z"/><path d="M106.667 234.671h42.667v64h-42.667z"/></svg>